<?xml version="1.0" encoding="UTF-8"?>
<svg xmlns="http://www.w3.org/2000/svg" xmlns:xlink="http://www.w3.org/1999/xlink" width="16px" height="16px" viewBox="0 0 16 16" version="1.1">
<defs>
<filter id="alpha" filterUnits="objectBoundingBox" x="0%" y="0%" width="100%" height="100%">
  <feColorMatrix type="matrix" in="SourceGraphic" values="0 0 0 0 1 0 0 0 0 1 0 0 0 0 1 0 0 0 1 0"/>
</filter>
<mask id="mask0">
  <g filter="url(#alpha)">
<rect x="0" y="0" width="16" height="16" style="fill:rgb(0%,0%,0%);fill-opacity:0.101961;stroke:none;"/>
  </g>
</mask>
<clipPath id="clip1">
  <rect x="0" y="0" width="16" height="16"/>
</clipPath>
<g id="surface5" clip-path="url(#clip1)">
<path style=" stroke:none;fill-rule:nonzero;fill:rgb(19.607843%,19.607843%,19.607843%);fill-opacity:1;" d="M 13.949219 6.050781 L 11.222656 8.777344 C 10.878906 9.121094 10.75 9.621094 10.882812 10.085938 L 11.964844 13.875 C 11.976562 13.917969 11.929688 13.953125 11.890625 13.925781 L 11.878906 13.917969 L 8.738281 11.828125 C 8.292969 11.527344 7.707031 11.527344 7.261719 11.828125 L 4.113281 13.925781 C 4.074219 13.949219 4.023438 13.914062 4.039062 13.867188 L 4.042969 13.851562 L 5.117188 10.085938 C 5.25 9.621094 5.121094 9.121094 4.777344 8.777344 L 2.0625 6.0625 C 2.039062 6.039062 2.058594 6 2.089844 6 L 5.445312 6 C 5.984375 6 6.46875 5.675781 6.675781 5.179688 L 7.957031 2.101562 C 7.972656 2.0625 8.027344 2.0625 8.042969 2.101562 L 9.324219 5.179688 C 9.53125 5.675781 10.015625 6 10.554688 6 L 13.929688 6 C 13.953125 6 13.96875 6.03125 13.949219 6.050781 Z M 13.949219 6.050781 "/>
</g>
</defs>
<g id="surface1">
<use xlink:href="#surface5" mask="url(#mask0)"/>
<path style="fill:none;stroke-width:2;stroke-linecap:butt;stroke-linejoin:round;stroke:rgb(19.607843%,19.607843%,19.607843%);stroke-opacity:1;stroke-miterlimit:4;" d="M 20.923828 9.076172 L 16.833984 13.166016 C 16.318359 13.681641 16.125 14.431641 16.324219 15.128906 L 17.947266 20.8125 C 17.964844 20.876953 17.894531 20.929687 17.835937 20.888672 L 17.818359 20.876953 L 13.107422 17.742187 C 12.439453 17.291016 11.560547 17.291016 10.892578 17.742187 L 6.169922 20.888672 C 6.111328 20.923828 6.035156 20.871094 6.058594 20.800781 L 6.064453 20.777344 L 7.675781 15.128906 C 7.875 14.431641 7.681641 13.681641 7.166016 13.166016 L 3.09375 9.09375 C 3.058594 9.058594 3.087891 9 3.134766 9 L 8.167969 9 C 8.976562 9 9.703125 8.513672 10.013672 7.769531 L 11.935547 3.152344 C 11.958984 3.09375 12.041016 3.09375 12.064453 3.152344 L 13.986328 7.769531 C 14.296875 8.513672 15.023437 9 15.832031 9 L 20.894531 9 C 20.929687 9 20.953125 9.046875 20.923828 9.076172 Z M 20.923828 9.076172 " transform="matrix(0.666667,0,0,0.666667,0,0)"/>
</g>
</svg>
